<svg width="881" height="830" viewBox="0 0 881 830" fill="none" xmlns="http://www.w3.org/2000/svg">
<path d="M862.768 716.545H414.455C404.828 716.533 397.026 707.971 397.015 697.405V100.673C397.026 90.107 404.828 81.544 414.455 81.533H862.768C872.395 81.545 880.197 90.107 880.208 100.673V697.404C880.197 707.97 872.395 716.533 862.768 716.545ZM414.455 83.785C405.96 83.796 399.076 91.351 399.067 100.674V697.404C399.077 706.727 405.961 714.282 414.455 714.293H862.768C871.263 714.282 878.147 706.727 878.156 697.404V100.673C878.146 91.35 871.262 83.795 862.768 83.784L414.455 83.785Z" fill="white"/>
<path d="M878.903 128.36H398.141V130.612H878.903V128.36Z" fill="white"/>
<path d="M424.036 115.31C429.01 115.31 433.043 111.277 433.043 106.303C433.043 101.329 429.01 97.296 424.036 97.296C419.062 97.296 415.029 101.329 415.029 106.303C415.029 111.277 419.062 115.31 424.036 115.31Z" fill="white"/>
<path d="M452.185 115.31C457.159 115.31 461.192 111.277 461.192 106.303C461.192 101.329 457.159 97.296 452.185 97.296C447.211 97.296 443.178 101.329 443.178 106.303C443.178 111.277 447.211 115.31 452.185 115.31Z" fill="white"/>
<path d="M480.333 115.31C485.307 115.31 489.34 111.277 489.34 106.303C489.34 101.329 485.307 97.296 480.333 97.296C475.359 97.296 471.326 101.329 471.326 106.303C471.326 111.277 475.359 115.31 480.333 115.31Z" fill="white"/>
<path d="M814.253 217.768H462.97C459.088 217.768 455.365 216.226 452.62 213.481C449.875 210.736 448.333 207.013 448.333 203.131C448.333 199.249 449.875 195.526 452.62 192.781C455.365 190.036 459.088 188.494 462.97 188.494H814.253C818.135 188.494 821.858 190.036 824.603 192.781C827.348 195.526 828.89 199.249 828.89 203.131C828.89 207.013 827.348 210.736 824.603 213.481C821.858 216.226 818.135 217.768 814.253 217.768ZM462.97 190.746C459.685 190.746 456.535 192.051 454.212 194.373C451.89 196.696 450.585 199.846 450.585 203.131C450.585 206.416 451.89 209.566 454.212 211.889C456.535 214.211 459.685 215.516 462.97 215.516H814.253C817.538 215.516 820.688 214.211 823.01 211.889C825.333 209.566 826.638 206.416 826.638 203.131C826.638 199.846 825.333 196.696 823.01 194.373C820.688 192.051 817.538 190.746 814.253 190.746H462.97Z" fill="white"/>
<path d="M605.96 429.441H467.473C462.399 429.435 457.534 427.417 453.945 423.829C450.357 420.24 448.339 415.375 448.333 410.301V296.581C448.339 291.507 450.357 286.642 453.945 283.053C457.534 279.465 462.399 277.447 467.473 277.441H605.96C611.034 277.447 615.899 279.465 619.488 283.053C623.076 286.642 625.094 291.507 625.1 296.581V410.298C625.095 415.373 623.077 420.239 619.488 423.828C615.9 427.417 611.035 429.435 605.96 429.441ZM467.473 279.693C462.996 279.699 458.704 281.48 455.538 284.646C452.372 287.812 450.591 292.104 450.586 296.581V410.298C450.591 414.776 452.372 419.069 455.538 422.235C458.704 425.401 462.997 427.182 467.475 427.187H605.96C610.438 427.182 614.731 425.401 617.897 422.235C621.063 419.069 622.844 414.776 622.849 410.298V296.581C622.844 292.103 621.063 287.81 617.897 284.644C614.731 281.478 610.438 279.697 605.96 279.692L467.473 279.693Z" fill="white"/>
<path d="M605.96 641.111H467.473C462.399 641.105 457.534 639.087 453.945 635.499C450.357 631.91 448.339 627.045 448.333 621.971V508.251C448.339 503.177 450.357 498.312 453.945 494.723C457.534 491.135 462.399 489.117 467.473 489.111H605.96C611.034 489.117 615.899 491.135 619.488 494.723C623.076 498.312 625.094 503.177 625.1 508.251V621.968C625.095 627.043 623.077 631.909 619.488 635.498C615.9 639.087 611.035 641.105 605.96 641.111ZM467.473 491.363C462.996 491.369 458.704 493.15 455.538 496.316C452.372 499.482 450.591 503.774 450.586 508.251V621.968C450.591 626.446 452.372 630.739 455.538 633.905C458.704 637.071 462.997 638.852 467.475 638.857H605.96C610.438 638.852 614.731 637.071 617.897 633.905C621.063 630.739 622.844 626.446 622.849 621.968V508.251C622.844 503.773 621.063 499.48 617.897 496.314C614.731 493.148 610.438 491.367 605.96 491.362L467.473 491.363Z" fill="white"/>
<path d="M810.637 489.111H668.121C659.284 489.111 652.121 496.274 652.121 505.111V622.857C652.121 631.694 659.284 638.857 668.121 638.857H810.637C819.474 638.857 826.637 631.694 826.637 622.857V505.111C826.637 496.274 819.474 489.111 810.637 489.111Z" fill="#F2F2F2"/>
<path d="M502.256 401.935H502.181L486.429 401.352C485.938 401.337 485.469 401.145 485.108 400.811C484.747 400.478 484.52 400.025 484.467 399.536C483.383 389.863 478.921 340.571 497.612 320.084C500.257 317.126 503.528 314.794 507.187 313.257C510.846 311.72 514.801 311.016 518.765 311.198C518.926 311.208 519.087 311.174 519.23 311.1C519.373 311.025 519.493 310.913 519.577 310.775L523.389 304.781C523.598 304.456 523.893 304.197 524.242 304.031C524.59 303.866 524.979 303.801 525.362 303.845C528.419 304.214 544.003 305.958 550.556 304.061C550.942 303.947 551.354 303.95 551.739 304.068C552.124 304.186 552.465 304.416 552.721 304.727L557.729 310.847C557.815 310.958 557.926 311.046 558.053 311.105C558.18 311.164 558.32 311.192 558.46 311.186C561.007 311.135 569.937 311.628 577.752 320.37C586.215 329.836 594.952 351.193 588.497 399.179C588.429 399.672 588.186 400.124 587.812 400.452C587.438 400.78 586.958 400.961 586.46 400.963H574.057C573.565 400.961 573.089 400.782 572.716 400.46C572.344 400.138 572.099 399.693 572.026 399.206L567.973 371.243C567.938 371.015 567.819 370.807 567.639 370.662C567.459 370.517 567.232 370.444 567.001 370.459C566.77 370.473 566.553 370.573 566.392 370.739C566.232 370.905 566.139 371.125 566.132 371.356L565.853 384.485C565.844 384.874 565.725 385.253 565.509 385.578C565.293 385.902 564.99 386.158 564.634 386.317C560.211 388.261 536.843 397.381 511.016 385.959C510.667 385.802 510.368 385.551 510.153 385.234C509.938 384.918 509.814 384.548 509.797 384.165L509.289 372.236C509.279 372.003 509.181 371.783 509.015 371.62C508.85 371.456 508.629 371.36 508.396 371.352C508.163 371.344 507.936 371.424 507.76 371.576C507.583 371.728 507.471 371.941 507.444 372.172L504.296 400.114C504.237 400.614 503.997 401.076 503.621 401.411C503.245 401.747 502.76 401.933 502.256 401.935Z" fill="#E11D48"/>
<path d="M567.415 607.933H567.403L505.678 607.547C505.229 607.544 504.797 607.377 504.462 607.077C504.128 606.778 503.914 606.367 503.861 605.921L497.652 553.146C497.614 552.806 497.455 552.49 497.203 552.258C496.951 552.026 496.623 551.893 496.281 551.883C491.381 551.723 479.722 550.606 477.307 543.705C475.155 537.559 481.04 528.494 494.798 516.761C495.032 516.561 495.312 516.423 495.614 516.359C495.915 516.295 496.227 516.308 496.522 516.396C496.817 516.484 497.086 516.644 497.303 516.863C497.52 517.081 497.679 517.35 497.765 517.646L504.907 542.286C504.994 542.582 505.174 542.842 505.42 543.027C505.666 543.213 505.965 543.316 506.273 543.319L564.796 543.712C565.102 543.715 565.401 543.62 565.649 543.44C565.897 543.259 566.08 543.004 566.171 542.712L574.118 517.426C574.206 517.144 574.362 516.887 574.57 516.678C574.779 516.468 575.035 516.312 575.317 516.223C575.599 516.133 575.898 516.113 576.189 516.164C576.48 516.215 576.755 516.335 576.99 516.514C582.412 520.656 599.882 534.874 597.006 543.968C595.5 548.731 588.706 551.385 576.818 551.859C576.477 551.871 576.151 552.005 575.9 552.237C575.649 552.468 575.49 552.783 575.451 553.122L569.239 606.312C569.187 606.761 568.972 607.174 568.635 607.475C568.298 607.775 567.862 607.941 567.41 607.94L567.415 607.933Z" fill="#E11D48"/>
<path d="M723.319 519.757C723.319 519.757 717.655 521.173 708.871 544.965C700.087 568.757 696.971 599.497 696.971 599.497C696.971 599.497 692.032 607.861 713.115 608.421C713.115 608.421 711.415 613.945 723.315 613.097C735.215 612.249 733.499 612.257 733.499 612.257C733.499 612.257 741.147 607.441 744.547 608.289C747.947 609.137 750.071 609.425 753.747 612.537C757.423 615.649 769.191 614.381 769.331 611.977C769.425 610.796 769.425 609.61 769.331 608.429C769.331 608.429 787.319 609.565 783.919 596.529C780.519 583.493 777.694 562.111 777.694 562.111C777.694 562.111 768.494 520.331 758.002 519.763C747.51 519.195 723.319 519.757 723.319 519.757Z" fill="white"/>
<path d="M430.096 820.128H1.12497C0.826336 820.128 0.539932 820.009 0.328766 819.798C0.1176 819.587 -0.0010376 819.301 -0.0010376 819.002C-0.0010376 818.703 0.1176 818.417 0.328766 818.206C0.539932 817.995 0.826336 817.876 1.12497 817.876H430.096C430.395 817.876 430.681 817.995 430.892 818.206C431.103 818.417 431.222 818.703 431.222 819.002C431.222 819.301 431.103 819.587 430.892 819.798C430.681 820.009 430.395 820.128 430.096 820.128Z" fill="#CBCBCB"/>
<path d="M287.131 514.23C286.115 514.867 284.982 515.296 283.799 515.493C279.453 515.622 275.843 503.857 275.843 503.857C275.843 503.857 277.076 502.604 279.043 500.873C284.871 495.692 297.093 486.125 302.821 491.473C309.289 497.453 294.664 510.183 287.131 514.23Z" fill="#FFB9B9"/>
<path d="M219.081 796.235L203.038 813.549C203.038 813.549 188.2 813.718 191.104 805.533C191.684 803.759 192.097 801.934 192.337 800.083C193.068 794.271 193.417 788.418 193.381 782.56C193.381 778.721 193.321 776.026 193.321 776.026C193.321 776.026 216.682 765.793 214.295 776.454C213.998 777.787 213.838 779.147 213.818 780.512C213.809 784.463 214.721 788.362 216.483 791.899C217.205 793.426 218.075 794.878 219.081 796.235Z" fill="#FFB9B9"/>
<path d="M256.292 822.31C250.853 826.944 243.903 829.42 236.76 829.271C223.533 829.082 198.82 828.694 193.082 828.456C185.405 828.118 187.95 821.564 188.199 817.049V816.601C188.288 812.076 189.193 802.27 190.725 800.739C192.257 799.208 197.497 807.561 197.497 807.561C197.497 807.561 207.73 810.545 210.545 801.594C213.36 792.643 219.078 791.778 219.078 791.778C221.678 790.654 221.803 797.407 221.803 797.407L243.463 808.575L256.173 810.564C256.581 810.753 256.949 810.942 257.297 811.131C263.045 814.354 260.499 818.67 256.292 822.31Z" fill="black"/>
<path d="M166.556 752.745C164.782 754.192 163.163 755.818 161.723 757.598C156.939 763.147 151.023 771.521 148.089 775.678C146.955 777.309 146.269 778.333 146.269 778.333L139.869 777.388C139.869 777.388 132.969 766.817 133.057 766.568C133.145 766.319 138.527 754.962 138.527 754.962L140.605 752.526L147.159 744.868L150.142 741.407C150.142 741.407 172.338 748.568 166.556 752.745Z" fill="#FFB9B9"/>
<path d="M140.942 789.064C140.942 789.064 136.676 798.273 134.368 803.564C132.06 808.855 132.916 812.684 132.916 812.684C132.754 813.373 132.51 814.041 132.19 814.673C131.372 816.299 130.128 817.673 128.59 818.647C127.052 819.621 125.278 820.158 123.458 820.202H123.04C115.263 820.002 112.797 797.428 112.797 797.428C112.797 797.428 113.99 754.456 116.208 751.681C116.513 751.371 116.905 751.162 117.332 751.081C119.595 750.689 121.903 750.625 124.184 750.892C131.215 751.399 140.255 753.13 140.255 753.13H141.876C136.158 759.097 142.294 772.23 142.294 772.23C142.294 772.23 145.029 772.479 147.157 776.317C149.285 780.155 140.942 789.064 140.942 789.064Z" fill="black"/>
<path d="M257.258 511.422C257.258 511.422 260.838 511.681 263.135 510.149C265.432 508.617 275.288 504.391 275.546 501.576C275.546 501.576 281.423 515.897 284.755 516.414C284.755 516.414 274.522 524.469 273.755 527.025C272.988 529.581 253.03 535.856 253.03 535.856L257.258 511.422Z" fill="#E11D48"/>
<path d="M203.058 680.227C203.058 680.227 190.547 696.944 185.977 698.827C181.407 700.71 147.301 742.485 147.301 742.485C147.301 742.485 154.63 755.96 168.101 758.168C168.101 758.168 175.43 755.274 178.165 748.79C180.9 742.306 202.381 723.99 202.381 723.99L203.058 680.227Z" fill="black"/>
<path d="M255.758 553.977L255.509 558.691L253.381 598.321C253.381 598.321 251.67 607.192 252.387 624.237C253.104 641.282 242.8 668.293 242.8 668.293C242.8 668.293 237.828 686.542 236.316 694.893C234.804 703.244 230.011 705.832 224.216 727.144C224.216 727.144 218.925 756.481 217.255 759.385C215.585 762.289 215.714 777.634 215.714 777.634C204.635 790.761 188.435 778.827 188.435 778.827L188.604 737.727C188.604 737.727 193.204 699.867 196.62 694.576C200.036 689.285 200.031 674.796 200.031 674.796L198.509 640.983C198.509 640.983 197.296 637.403 198.34 635.354C199.384 633.305 195.426 627.687 195.426 627.687C185.869 616.081 184.487 589.987 187.281 584.924C190.075 579.861 198.34 559.346 198.34 559.346L209.747 552.693L230.363 553.3L255.758 553.977Z" fill="black"/>
<path d="M253.031 493.005V504.263L245.602 501.063L238.194 497.868L222.063 482.006C222.063 482.006 209.304 473.722 202.481 466.174C198.581 461.868 196.623 457.8 200.054 455.652C201.717 454.563 203.22 453.248 204.519 451.744C207.948 447.702 210.929 443.301 213.41 438.617C213.519 438.428 213.629 438.239 213.728 438.05C217.05 431.95 219.247 426.75 219.247 426.75C219.247 426.75 228.595 429.733 234.602 433.99C235.089 434.328 235.547 434.676 235.984 435.034C239.335 437.779 241.006 441.001 237.913 444.143C237.118 444.964 236.383 445.841 235.713 446.768C235.214 447.456 234.756 448.174 234.341 448.916C234.162 449.254 233.983 449.582 233.824 449.911C231.755 454.144 231.039 458.911 231.775 463.565L253.031 493.005Z" fill="#FFB9B9"/>
<path d="M255.755 422.097C255.755 435.06 247.616 446.168 236.407 448.512C234.999 448.803 233.564 448.949 232.126 448.948H231.251C218.331 448.404 208.196 436.148 208.513 421.458C208.83 406.768 219.479 395.091 232.407 395.266C245.335 395.441 255.737 407.399 255.746 422.097H255.755Z" fill="#FFB9B9"/>
<path d="M239.386 488.489C239.386 488.489 252.921 496.117 249.45 489.682L231.798 463.582L251.837 489.329C251.837 489.329 264.626 506.902 257.637 519.005C257.637 519.005 256.643 529.069 257.806 531.456C258.969 533.843 255.82 558.108 255.82 558.108C255.82 558.108 252.695 554.866 250.139 555.708C247.583 556.55 229.503 558.108 229.503 558.108L239.386 488.489Z" fill="#E6E6E6"/>
<path d="M245.602 501.06C244.802 509.255 241.435 519.011 241.435 519.011C241.435 519.011 239.048 543.237 235.975 550.397C232.902 557.557 234.275 567.453 232.564 585.697C231.947 592.261 229.829 596.776 226.975 599.829C222.281 604.801 215.575 605.876 210.287 605.577L209.034 605.477C200.501 604.622 192.317 563.519 192.317 563.519C192.317 563.519 188.399 528.563 189.93 523.789C191.461 519.015 188.399 491.727 187.374 485.75C186.718 481.971 188.674 475.805 190.188 471.768C191.073 469.441 191.799 467.84 191.799 467.84C191.799 467.84 194.699 458.631 199.476 453.857C200.132 453.179 200.919 452.642 201.789 452.278C202.66 451.914 203.595 451.731 204.538 451.739C206.784 451.82 208.966 452.507 210.853 453.728L211.072 453.867C211.072 453.867 242.12 485.591 245.014 492.921C245.821 494.964 245.93 497.893 245.602 501.06Z" fill="#E11D48"/>
<path opacity="0.1" d="M210.825 625.908C210.825 625.908 203.784 632.173 201.357 631.875C198.93 631.577 210.825 625.908 210.825 625.908Z" fill="black"/>
<path opacity="0.1" d="M212.695 631.924C212.695 631.924 205.276 635.365 203.058 635.902C200.84 636.439 209.831 631.039 212.695 631.924Z" fill="black"/>
<path opacity="0.1" d="M216.194 620.915C216.194 620.915 209.133 651.486 223.294 653.375C237.455 655.264 233.081 618.568 233.081 618.568L216.194 620.915Z" fill="black"/>
<path d="M215.677 620.408C215.677 620.408 208.656 650.979 222.788 652.888C236.92 654.797 232.564 618.081 232.564 618.081L215.677 620.408Z" fill="#FFB9B9"/>
<path opacity="0.1" d="M227.772 492.069C227.046 473.701 201.338 469.902 195.342 487.276C195.293 487.392 195.254 487.512 195.223 487.634C191.295 499.399 193.005 529.194 193.005 529.194C193.005 529.194 193.512 549.203 195.392 555.856C197.272 562.509 202.552 581.603 202.552 584.696C202.552 587.789 207.452 599.534 209.513 600.389C211.574 601.244 212.613 607.889 213.123 609.081C213.633 610.273 215.112 625.798 215.112 625.798C215.112 625.798 234.385 624.605 234.723 621.532C235.061 618.459 230.457 603.452 230.457 603.452C230.457 603.452 227.066 597.316 226.628 592.373C226.19 587.43 223.528 585.183 224.052 581.773C224.576 578.363 222.511 576.661 222.511 574.444C222.511 572.227 220.98 566.259 220.98 566.259C220.98 566.259 217.738 563.693 218.255 560.63C218.772 557.567 213.655 551.421 215.013 549.203C216.371 546.985 216.713 541.526 216.713 541.526C216.713 541.526 218.424 516.972 219.613 510.319C220.802 503.666 227.798 492.925 227.798 492.925C227.798 492.925 227.792 492.616 227.772 492.069Z" fill="black"/>
<path opacity="0.1" d="M226.975 599.832C222.281 604.804 215.575 605.879 210.287 605.58C209.67 603.253 208.775 600.389 207.473 599.852C205.404 598.997 200.512 587.232 200.512 584.169C200.512 581.106 195.231 561.992 193.352 555.329C191.473 548.666 190.965 528.677 190.965 528.677C190.965 528.677 189.254 498.842 193.183 487.107C193.202 486.985 193.242 486.867 193.302 486.759C199.269 469.375 225.002 473.184 225.732 491.552V492.397C225.732 492.397 218.771 503.137 217.547 509.791C216.323 516.445 214.663 540.998 214.663 540.998C214.663 540.998 214.315 546.458 212.952 548.675C211.589 550.892 216.701 557.039 216.194 560.102C215.687 563.165 218.919 565.731 218.919 565.731C218.919 565.731 220.451 571.698 220.451 573.926C220.451 576.154 222.5 577.844 221.992 581.255C221.484 584.666 224.21 586.884 224.647 591.826C225.012 594.597 225.797 597.297 226.974 599.832H226.975Z" fill="black"/>
<path d="M226.748 491.561C226.022 473.193 200.314 469.394 194.318 486.768L194.199 487.116C190.271 498.891 191.981 528.686 191.981 528.686C191.981 528.686 192.488 548.686 194.368 555.338C196.248 561.99 201.528 581.095 201.528 584.178C201.528 587.261 206.428 599.016 208.489 599.871C210.55 600.726 211.589 607.379 212.099 608.571C212.609 609.763 214.088 625.278 214.088 625.278C214.088 625.278 233.361 624.085 233.699 621.022C234.037 617.959 229.443 602.942 229.443 602.942C229.443 602.942 226.043 596.796 225.604 591.853C225.165 586.91 222.442 584.693 222.959 581.282C223.476 577.871 221.418 576.16 221.418 573.943C221.418 571.726 219.886 565.758 219.886 565.758C219.886 565.758 216.644 563.202 217.161 560.129C217.678 557.056 212.561 550.92 213.919 548.702C215.277 546.484 215.619 541.034 215.619 541.034C215.619 541.034 217.33 516.47 218.519 509.817C219.708 503.164 226.704 492.423 226.704 492.423C226.747 492.138 226.762 491.849 226.748 491.561Z" fill="#E11D48"/>
<path d="M290.863 506.931L291.39 507.289C291.154 507.132 290.952 506.93 290.796 506.693C290.641 506.457 290.534 506.192 290.483 505.913C290.432 505.635 290.437 505.349 290.499 505.072C290.561 504.796 290.678 504.535 290.843 504.305L314.552 469.955C314.709 469.726 314.909 469.531 315.142 469.38C315.374 469.229 315.634 469.125 315.907 469.075C316.18 469.025 316.46 469.03 316.731 469.089C317.002 469.147 317.258 469.259 317.486 469.418L316.959 469.05C317.698 469.561 318.205 470.344 318.367 471.228C318.529 472.112 318.334 473.024 317.824 473.764L295.577 506.055C295.066 506.794 294.284 507.301 293.401 507.465C292.517 507.63 291.605 507.437 290.863 506.931Z" fill="#464353"/>
<path d="M317.211 469.179L317.612 469.456L291.515 507.342L291.113 507.066C290.926 506.937 290.767 506.773 290.643 506.582C290.519 506.391 290.435 506.178 290.394 505.955C290.352 505.731 290.356 505.502 290.403 505.28C290.451 505.058 290.541 504.847 290.67 504.66L314.799 469.631C315.059 469.253 315.459 468.994 315.91 468.911C316.361 468.828 316.827 468.927 317.205 469.188L317.211 469.179Z" fill="#E11D48"/>
<path d="M194.866 428.273C191.733 415.268 196.679 404.683 204.141 399.922L204.142 399.917C207.666 394.706 211.792 390.938 215.814 390.587C217.803 389.589 219.897 388.816 222.057 388.282C223.05 388.098 224.07 388.117 225.055 388.337C226.041 388.558 226.972 388.976 227.791 389.566L228.855 389.472C231.164 389.548 228.877 389.671 232.006 389.202C235.982 388.025 240.168 387.733 244.27 388.346C255.634 390.354 260.655 401.163 260.382 413.108L250.438 413.96L248.066 408.113L248.574 414.12L243.087 414.585C233.273 423.565 238.588 449.215 248.333 464.686C245.593 463.381 242.843 462.201 240.083 461.146L232.392 444.089L236.378 459.083C233.124 458 228.78 457.72 223.956 457.843C223.306 456.711 222.938 455.438 222.884 454.133C222.831 452.828 223.092 451.53 223.646 450.347C221.866 452.681 220.463 455.28 219.489 458.05C209.236 458.714 195.611 457.578 188.224 457.212C182.722 454.274 186.508 432.747 194.866 428.273Z" fill="black"/>
<path d="M198.692 386.593C193.308 394.55 200.436 399.641 207.586 400.795C214.047 401.835 220.32 398.279 221.787 391.901C222.491 388.838 221.95 385.622 220.282 382.958C218.614 380.295 215.956 378.403 212.893 377.699C206.517 376.234 202.359 381.173 198.692 386.593Z" fill="black"/>
<path d="M646.351 272.936C646.351 276.782 645.211 280.541 643.074 283.738C640.938 286.936 637.901 289.428 634.348 290.9C630.795 292.372 626.886 292.757 623.114 292.006C619.342 291.256 615.878 289.405 613.158 286.685C610.439 283.966 608.587 280.502 607.837 276.73C607.086 272.958 607.471 269.049 608.943 265.496C610.414 261.943 612.906 258.906 616.104 256.769C619.301 254.633 623.06 253.492 626.906 253.492C629.459 253.492 631.988 253.995 634.347 254.972C636.706 255.949 638.85 257.381 640.656 259.187C642.461 260.992 643.894 263.136 644.871 265.495C645.848 267.854 646.351 270.382 646.351 272.936ZM624.651 283.227L639.13 268.804C639.248 268.688 639.341 268.549 639.405 268.397C639.469 268.244 639.502 268.08 639.502 267.914C639.502 267.749 639.469 267.585 639.405 267.432C639.341 267.28 639.248 267.141 639.13 267.025L637.306 265.314C637.19 265.196 637.051 265.103 636.898 265.039C636.746 264.975 636.582 264.942 636.416 264.942C636.251 264.942 636.087 264.975 635.934 265.039C635.782 265.103 635.643 265.196 635.527 265.314L623.761 277.023L618.267 271.529C618.152 271.412 618.014 271.318 617.862 271.255C617.711 271.191 617.548 271.158 617.383 271.158C617.218 271.158 617.055 271.191 616.904 271.255C616.752 271.318 616.614 271.412 616.499 271.529L614.72 273.297C614.487 273.535 614.357 273.854 614.357 274.187C614.357 274.519 614.487 274.838 614.72 275.076L622.871 283.228C622.987 283.346 623.126 283.439 623.278 283.503C623.431 283.567 623.595 283.6 623.76 283.6C623.926 283.6 624.09 283.567 624.242 283.503C624.395 283.439 624.534 283.346 624.65 283.228L624.651 283.227Z" fill="#E11D48"/>
<path d="M646.351 484.607C646.351 488.453 645.211 492.212 643.074 495.409C640.938 498.607 637.901 501.099 634.348 502.571C630.795 504.043 626.886 504.428 623.114 503.677C619.342 502.927 615.878 501.076 613.158 498.356C610.439 495.637 608.587 492.173 607.837 488.401C607.086 484.629 607.471 480.72 608.943 477.167C610.414 473.614 612.906 470.577 616.104 468.44C619.301 466.304 623.06 465.163 626.906 465.163C629.459 465.163 631.988 465.666 634.347 466.643C636.706 467.62 638.85 469.052 640.656 470.858C642.461 472.663 643.894 474.807 644.871 477.166C645.848 479.525 646.351 482.053 646.351 484.607ZM624.651 494.898L639.13 480.475C639.248 480.359 639.341 480.22 639.405 480.068C639.469 479.915 639.502 479.751 639.502 479.585C639.502 479.42 639.469 479.256 639.405 479.103C639.341 478.951 639.248 478.812 639.13 478.696L637.306 476.985C637.19 476.867 637.051 476.774 636.898 476.71C636.746 476.646 636.582 476.613 636.416 476.613C636.251 476.613 636.087 476.646 635.934 476.71C635.782 476.774 635.643 476.867 635.527 476.985L623.761 488.694L618.267 483.2C618.152 483.083 618.014 482.989 617.862 482.926C617.711 482.862 617.548 482.829 617.383 482.829C617.218 482.829 617.055 482.862 616.904 482.926C616.752 482.989 616.614 483.083 616.499 483.2L614.72 484.968C614.487 485.206 614.357 485.525 614.357 485.858C614.357 486.19 614.487 486.509 614.72 486.747L622.871 494.899C622.987 495.017 623.126 495.11 623.278 495.174C623.431 495.238 623.595 495.271 623.76 495.271C623.926 495.271 624.09 495.238 624.242 495.174C624.395 495.11 624.534 495.017 624.65 494.899L624.651 494.898Z" fill="#E11D48"/>
<path d="M716.532 299.582C716.532 299.582 712.98 299.158 714.825 303.558C716.67 307.958 720.074 322.432 718.377 325.412C716.68 328.392 717.528 336.482 710.148 338.05L712.27 346.417C712.27 346.417 712.694 364.867 711.846 367.57C710.998 370.273 710.846 385.162 711.136 386.721C711.426 388.28 711.284 398.501 710.149 398.935C709.014 399.369 708.304 404.322 711.994 405.171C715.684 406.02 731.431 406.453 734.272 407.302C737.113 408.151 757.261 407.302 757.261 407.302C757.261 407.302 765.776 406.167 767.907 405.457C770.038 404.747 770.462 403.049 769.752 399.784C769.042 396.519 765.776 372.819 766.486 369.84C767.196 366.861 767.344 337.765 767.344 337.765C767.344 337.765 761.805 335.92 761.805 330.523C761.805 325.126 759.674 310.652 764.074 301.575C764.074 301.575 760.522 299.14 759.96 299.575C759.398 300.01 754.038 298.45 754.038 298.45C754.038 298.45 751.27 323.15 739.693 323.284C728.116 323.418 722.959 298.45 722.959 298.45C722.959 298.45 723.063 296.178 716.532 299.582Z" fill="#E11D48"/>
<path d="M809.749 429.441H671.262C666.188 429.435 661.323 427.417 657.734 423.829C654.146 420.24 652.128 415.375 652.122 410.301V296.581C652.128 291.507 654.146 286.642 657.734 283.053C661.323 279.465 666.188 277.447 671.262 277.441H809.749C814.823 277.447 819.688 279.465 823.277 283.053C826.865 286.642 828.883 291.507 828.889 296.581V410.298C828.884 415.373 826.866 420.239 823.277 423.828C819.689 427.417 814.824 429.435 809.749 429.441ZM671.262 279.693C666.785 279.699 662.493 281.48 659.327 284.646C656.161 287.812 654.38 292.104 654.375 296.581V410.298C654.38 414.776 656.161 419.069 659.327 422.235C662.493 425.401 666.786 427.182 671.264 427.187H809.749C814.227 427.182 818.52 425.401 821.686 422.235C824.852 419.069 826.633 414.776 826.638 410.298V296.581C826.633 292.103 824.852 287.81 821.686 284.644C818.52 281.478 814.227 279.697 809.749 279.692L671.262 279.693Z" fill="white"/>
<path d="M848.333 272.936C848.333 276.782 847.193 280.541 845.056 283.738C842.92 286.936 839.883 289.428 836.33 290.9C832.777 292.372 828.868 292.757 825.096 292.006C821.324 291.256 817.86 289.405 815.14 286.685C812.421 283.966 810.569 280.502 809.819 276.73C809.068 272.958 809.453 269.049 810.925 265.496C812.396 261.943 814.888 258.906 818.086 256.769C821.283 254.633 825.042 253.492 828.888 253.492C831.442 253.492 833.97 253.995 836.329 254.972C838.688 255.949 840.832 257.381 842.638 259.187C844.443 260.992 845.876 263.136 846.853 265.495C847.83 267.854 848.333 270.382 848.333 272.936ZM826.633 283.227L841.112 268.804C841.23 268.688 841.323 268.549 841.387 268.397C841.451 268.244 841.484 268.08 841.484 267.914C841.484 267.749 841.451 267.585 841.387 267.432C841.323 267.28 841.23 267.141 841.112 267.025L839.288 265.314C839.172 265.196 839.033 265.103 838.881 265.039C838.728 264.975 838.564 264.942 838.399 264.942C838.233 264.942 838.069 264.975 837.916 265.039C837.764 265.103 837.625 265.196 837.509 265.314L825.743 277.023L820.249 271.529C820.134 271.412 819.996 271.318 819.844 271.255C819.693 271.191 819.53 271.158 819.365 271.158C819.2 271.158 819.037 271.191 818.886 271.255C818.734 271.318 818.596 271.412 818.481 271.529L816.702 273.297C816.469 273.535 816.339 273.854 816.339 274.187C816.339 274.519 816.469 274.838 816.702 275.076L824.853 283.228C824.969 283.346 825.108 283.439 825.26 283.503C825.413 283.567 825.577 283.6 825.743 283.6C825.908 283.6 826.072 283.567 826.225 283.503C826.377 283.439 826.516 283.346 826.632 283.228L826.633 283.227Z" fill="#E11D48"/>
<path d="M414.889 8.828C417.327 8.828 419.303 6.85178 419.303 4.414C419.303 1.97622 417.327 0 414.889 0C412.451 0 410.475 1.97622 410.475 4.414C410.475 6.85178 412.451 8.828 414.889 8.828Z" fill="white"/>
<path d="M431.644 8.828C434.082 8.828 436.058 6.85178 436.058 4.414C436.058 1.97622 434.082 0 431.644 0C429.206 0 427.23 1.97622 427.23 4.414C427.23 6.85178 429.206 8.828 431.644 8.828Z" fill="white"/>
<path d="M448.396 8.828C450.834 8.828 452.81 6.85178 452.81 4.414C452.81 1.97622 450.834 0 448.396 0C445.958 0 443.982 1.97622 443.982 4.414C443.982 6.85178 445.958 8.828 448.396 8.828Z" fill="white"/>
</svg>
